<mxfile host="www.draw.io" modified="2019-11-19T09:14:19.930Z" agent="Mozilla/5.0 (Windows NT 10.0; WOW64) AppleWebKit/537.36 (KHTML, like Gecko) Chrome/78.0.3904.97 Safari/537.36" etag="an8G15kZ7jwM7SCnQ9Iu" version="12.2.6" type="github" pages="1">
  <diagram id="hBi_5CCde8S_dSxZc9eN" name="第 1 页">
    <mxGraphModel dx="868" dy="450" grid="1" gridSize="10" guides="1" tooltips="1" connect="1" arrows="1" fold="1" page="1" pageScale="1" pageWidth="827" pageHeight="1169" math="0" shadow="0">
      <root>
        <mxCell id="0"/>
        <mxCell id="1" parent="0"/>
        <mxCell id="q2H_5C9bvSTyPUPvVsha-13" value="1、还款" style="edgeStyle=orthogonalEdgeStyle;rounded=0;orthogonalLoop=1;jettySize=auto;html=1;exitX=1;exitY=0.5;exitDx=0;exitDy=0;entryX=0;entryY=0.5;entryDx=0;entryDy=0;" edge="1" parent="1" source="q2H_5C9bvSTyPUPvVsha-14" target="q2H_5C9bvSTyPUPvVsha-18">
          <mxGeometry relative="1" as="geometry"/>
        </mxCell>
        <mxCell id="q2H_5C9bvSTyPUPvVsha-14" value="用户" style="ellipse;whiteSpace=wrap;html=1;" vertex="1" parent="1">
          <mxGeometry x="15" y="460" width="120" height="80" as="geometry"/>
        </mxCell>
        <mxCell id="q2H_5C9bvSTyPUPvVsha-15" value="" style="edgeStyle=orthogonalEdgeStyle;rounded=0;orthogonalLoop=1;jettySize=auto;html=1;entryX=0.5;entryY=0;entryDx=0;entryDy=0;exitX=0.4;exitY=-0.017;exitDx=0;exitDy=0;exitPerimeter=0;" edge="1" parent="1" source="q2H_5C9bvSTyPUPvVsha-18" target="q2H_5C9bvSTyPUPvVsha-23">
          <mxGeometry x="-0.4194" relative="1" as="geometry">
            <mxPoint x="400" y="230" as="sourcePoint"/>
            <mxPoint as="offset"/>
          </mxGeometry>
        </mxCell>
        <mxCell id="q2H_5C9bvSTyPUPvVsha-51" value="2、申请扣款" style="text;html=1;resizable=0;points=[];align=center;verticalAlign=middle;labelBackgroundColor=#ffffff;" vertex="1" connectable="0" parent="q2H_5C9bvSTyPUPvVsha-15">
          <mxGeometry x="-0.447" y="1" relative="1" as="geometry">
            <mxPoint as="offset"/>
          </mxGeometry>
        </mxCell>
        <mxCell id="q2H_5C9bvSTyPUPvVsha-16" style="edgeStyle=orthogonalEdgeStyle;rounded=0;orthogonalLoop=1;jettySize=auto;html=1;" edge="1" parent="1" source="q2H_5C9bvSTyPUPvVsha-18" target="q2H_5C9bvSTyPUPvVsha-31">
          <mxGeometry relative="1" as="geometry"/>
        </mxCell>
        <mxCell id="q2H_5C9bvSTyPUPvVsha-17" value="8、还款入账处理" style="text;html=1;resizable=0;points=[];align=center;verticalAlign=middle;labelBackgroundColor=#ffffff;" vertex="1" connectable="0" parent="q2H_5C9bvSTyPUPvVsha-16">
          <mxGeometry x="-0.2" y="2" relative="1" as="geometry">
            <mxPoint x="6" y="2" as="offset"/>
          </mxGeometry>
        </mxCell>
        <mxCell id="q2H_5C9bvSTyPUPvVsha-58" value="11、通知用户还款成功" style="edgeStyle=orthogonalEdgeStyle;rounded=0;orthogonalLoop=1;jettySize=auto;html=1;exitX=0;exitY=0.75;exitDx=0;exitDy=0;entryX=0.917;entryY=0.775;entryDx=0;entryDy=0;entryPerimeter=0;" edge="1" parent="1" source="q2H_5C9bvSTyPUPvVsha-18" target="q2H_5C9bvSTyPUPvVsha-14">
          <mxGeometry relative="1" as="geometry">
            <Array as="points">
              <mxPoint x="353" y="522"/>
            </Array>
          </mxGeometry>
        </mxCell>
        <mxCell id="q2H_5C9bvSTyPUPvVsha-18" value="平台系统" style="rounded=1;whiteSpace=wrap;html=1;" vertex="1" parent="1">
          <mxGeometry x="353" y="470" width="120" height="60" as="geometry"/>
        </mxCell>
        <mxCell id="q2H_5C9bvSTyPUPvVsha-19" style="edgeStyle=orthogonalEdgeStyle;rounded=0;orthogonalLoop=1;jettySize=auto;html=1;entryX=0;entryY=0.5;entryDx=0;entryDy=0;" edge="1" parent="1" source="q2H_5C9bvSTyPUPvVsha-23" target="q2H_5C9bvSTyPUPvVsha-38">
          <mxGeometry relative="1" as="geometry"/>
        </mxCell>
        <mxCell id="q2H_5C9bvSTyPUPvVsha-20" value="3、发起支付" style="text;html=1;resizable=0;points=[];align=center;verticalAlign=middle;labelBackgroundColor=#ffffff;" vertex="1" connectable="0" parent="q2H_5C9bvSTyPUPvVsha-19">
          <mxGeometry x="-0.1963" y="4" relative="1" as="geometry">
            <mxPoint x="2" y="4" as="offset"/>
          </mxGeometry>
        </mxCell>
        <mxCell id="q2H_5C9bvSTyPUPvVsha-21" style="edgeStyle=orthogonalEdgeStyle;rounded=0;orthogonalLoop=1;jettySize=auto;html=1;entryX=0.75;entryY=0;entryDx=0;entryDy=0;" edge="1" parent="1" source="q2H_5C9bvSTyPUPvVsha-23" target="q2H_5C9bvSTyPUPvVsha-18">
          <mxGeometry relative="1" as="geometry"/>
        </mxCell>
        <mxCell id="q2H_5C9bvSTyPUPvVsha-22" value="7、通知扣款成功" style="text;html=1;resizable=0;points=[];align=center;verticalAlign=middle;labelBackgroundColor=#ffffff;" vertex="1" connectable="0" parent="q2H_5C9bvSTyPUPvVsha-21">
          <mxGeometry x="-0.58" relative="1" as="geometry">
            <mxPoint x="5" y="50" as="offset"/>
          </mxGeometry>
        </mxCell>
        <mxCell id="q2H_5C9bvSTyPUPvVsha-23" value="订单中心" style="rounded=1;whiteSpace=wrap;html=1;" vertex="1" parent="1">
          <mxGeometry x="530" y="170" width="120" height="60" as="geometry"/>
        </mxCell>
        <mxCell id="q2H_5C9bvSTyPUPvVsha-52" style="edgeStyle=orthogonalEdgeStyle;rounded=0;orthogonalLoop=1;jettySize=auto;html=1;" edge="1" parent="1" source="q2H_5C9bvSTyPUPvVsha-31" target="q2H_5C9bvSTyPUPvVsha-34">
          <mxGeometry relative="1" as="geometry"/>
        </mxCell>
        <mxCell id="q2H_5C9bvSTyPUPvVsha-56" value="9、入账" style="text;html=1;resizable=0;points=[];align=center;verticalAlign=middle;labelBackgroundColor=#ffffff;" vertex="1" connectable="0" parent="q2H_5C9bvSTyPUPvVsha-52">
          <mxGeometry x="0.1048" y="-2" relative="1" as="geometry">
            <mxPoint x="4" y="-2" as="offset"/>
          </mxGeometry>
        </mxCell>
        <mxCell id="q2H_5C9bvSTyPUPvVsha-54" style="edgeStyle=orthogonalEdgeStyle;rounded=0;orthogonalLoop=1;jettySize=auto;html=1;entryX=-0.025;entryY=0.65;entryDx=0;entryDy=0;entryPerimeter=0;" edge="1" parent="1" source="q2H_5C9bvSTyPUPvVsha-31" target="q2H_5C9bvSTyPUPvVsha-33">
          <mxGeometry relative="1" as="geometry">
            <Array as="points">
              <mxPoint x="780" y="500"/>
              <mxPoint x="780" y="619"/>
            </Array>
          </mxGeometry>
        </mxCell>
        <mxCell id="q2H_5C9bvSTyPUPvVsha-55" value="10、生成结清凭证" style="text;html=1;resizable=0;points=[];align=center;verticalAlign=middle;labelBackgroundColor=#ffffff;" vertex="1" connectable="0" parent="q2H_5C9bvSTyPUPvVsha-54">
          <mxGeometry x="0.3436" y="-2" relative="1" as="geometry">
            <mxPoint x="10" y="-1" as="offset"/>
          </mxGeometry>
        </mxCell>
        <mxCell id="q2H_5C9bvSTyPUPvVsha-31" value="核算中心" style="rounded=1;whiteSpace=wrap;html=1;" vertex="1" parent="1">
          <mxGeometry x="630" y="470" width="120" height="60" as="geometry"/>
        </mxCell>
        <mxCell id="q2H_5C9bvSTyPUPvVsha-33" value="合同中心" style="rounded=1;whiteSpace=wrap;html=1;" vertex="1" parent="1">
          <mxGeometry x="960" y="580" width="120" height="60" as="geometry"/>
        </mxCell>
        <mxCell id="q2H_5C9bvSTyPUPvVsha-34" value="账务中心" style="rounded=1;whiteSpace=wrap;html=1;" vertex="1" parent="1">
          <mxGeometry x="960" y="470" width="120" height="60" as="geometry"/>
        </mxCell>
        <mxCell id="q2H_5C9bvSTyPUPvVsha-35" value="4、实际支付" style="edgeStyle=orthogonalEdgeStyle;rounded=0;orthogonalLoop=1;jettySize=auto;html=1;entryX=0;entryY=0.5;entryDx=0;entryDy=0;" edge="1" parent="1" source="q2H_5C9bvSTyPUPvVsha-38" target="q2H_5C9bvSTyPUPvVsha-41">
          <mxGeometry relative="1" as="geometry"/>
        </mxCell>
        <mxCell id="q2H_5C9bvSTyPUPvVsha-59" value="6、更新订单状态" style="edgeStyle=orthogonalEdgeStyle;rounded=0;orthogonalLoop=1;jettySize=auto;html=1;entryX=0.5;entryY=1;entryDx=0;entryDy=0;" edge="1" parent="1" source="q2H_5C9bvSTyPUPvVsha-38" target="q2H_5C9bvSTyPUPvVsha-23">
          <mxGeometry relative="1" as="geometry">
            <Array as="points">
              <mxPoint x="830" y="250"/>
              <mxPoint x="590" y="250"/>
            </Array>
          </mxGeometry>
        </mxCell>
        <mxCell id="q2H_5C9bvSTyPUPvVsha-38" value="支付中心" style="rounded=1;whiteSpace=wrap;html=1;" vertex="1" parent="1">
          <mxGeometry x="780" y="175" width="120" height="50" as="geometry"/>
        </mxCell>
        <mxCell id="q2H_5C9bvSTyPUPvVsha-39" style="edgeStyle=orthogonalEdgeStyle;rounded=0;orthogonalLoop=1;jettySize=auto;html=1;entryX=0.367;entryY=-0.017;entryDx=0;entryDy=0;entryPerimeter=0;exitX=0.5;exitY=0;exitDx=0;exitDy=0;" edge="1" parent="1" source="q2H_5C9bvSTyPUPvVsha-41" target="q2H_5C9bvSTyPUPvVsha-38">
          <mxGeometry relative="1" as="geometry">
            <mxPoint x="1060" y="20" as="sourcePoint"/>
            <Array as="points">
              <mxPoint x="1060" y="60"/>
              <mxPoint x="824" y="60"/>
            </Array>
          </mxGeometry>
        </mxCell>
        <mxCell id="q2H_5C9bvSTyPUPvVsha-40" value="5、回调支付成功" style="text;html=1;resizable=0;points=[];align=center;verticalAlign=middle;labelBackgroundColor=#ffffff;" vertex="1" connectable="0" parent="q2H_5C9bvSTyPUPvVsha-39">
          <mxGeometry x="0.1175" y="-2" relative="1" as="geometry">
            <mxPoint as="offset"/>
          </mxGeometry>
        </mxCell>
        <mxCell id="q2H_5C9bvSTyPUPvVsha-41" value="第三方支付渠道（京东支付、宝付等）" style="rounded=1;whiteSpace=wrap;html=1;" vertex="1" parent="1">
          <mxGeometry x="1020" y="170" width="120" height="60" as="geometry"/>
        </mxCell>
        <mxCell id="q2H_5C9bvSTyPUPvVsha-42" value="&lt;font style=&quot;font-size: 10px&quot;&gt;&lt;b&gt;还款业务流程&lt;/b&gt;&lt;/font&gt;" style="rounded=1;whiteSpace=wrap;html=1;strokeColor=none;" vertex="1" parent="1">
          <mxGeometry x="680" y="10" width="120" height="60" as="geometry"/>
        </mxCell>
        <mxCell id="q2H_5C9bvSTyPUPvVsha-50" value="1、对到期或逾期未还款用户进行主动扣款，走批扣" style="edgeStyle=orthogonalEdgeStyle;rounded=0;orthogonalLoop=1;jettySize=auto;html=1;" edge="1" parent="1" source="q2H_5C9bvSTyPUPvVsha-49" target="q2H_5C9bvSTyPUPvVsha-18">
          <mxGeometry relative="1" as="geometry"/>
        </mxCell>
        <mxCell id="q2H_5C9bvSTyPUPvVsha-49" value="跑批中心" style="rounded=1;whiteSpace=wrap;html=1;" vertex="1" parent="1">
          <mxGeometry x="353" y="610" width="120" height="60" as="geometry"/>
        </mxCell>
      </root>
    </mxGraphModel>
  </diagram>
</mxfile>
